<svg width="76" height="86" viewBox="0 0 76 86" fill="none" xmlns="http://www.w3.org/2000/svg">
<path d="M27.1023 61.8743L38 72.6173L48.8977 61.8743L38 51.1313L27.1023 61.8743ZM38 9.73711V9.75326C34.8809 9.75326 31.7618 10.9272 29.3857 13.2696L29.3747 13.2589C27.004 15.6013 25.8132 18.6815 25.8132 21.7617C25.8132 24.8473 26.9985 27.9221 29.3638 30.2538H29.3802L38 38.7459L46.6143 30.2538H46.6307C49.0124 27.906 50.2032 24.8312 50.2032 21.7617H50.1868C50.1868 18.6869 48.996 15.6121 46.6198 13.2696C44.2272 10.9164 41.1082 9.73711 38 9.73711ZM55.1795 68.067L41.1409 81.9063L38 85.0027L34.8591 81.9063L20.8205 68.067L6.78186 81.9063L0.5 75.7136L31.7236 44.9386L23.1092 36.4465L23.1202 36.4357C18.996 32.3755 16.9366 27.0605 16.9366 21.7617C16.9366 16.4575 18.996 11.148 23.1092 7.09309V7.08232C27.2225 3.02744 32.614 0.997314 38 0.997314V1.01347C43.3969 1.01347 48.7939 3.03821 52.8962 7.08232C57.0095 11.1372 59.0634 16.4522 59.0634 21.7671H59.047C59.047 27.0767 56.9931 32.3863 52.8853 36.4411L52.8962 36.4519L44.2819 44.9386L75.5 75.7136L69.2181 81.9063L55.1795 68.067Z" fill="#55281D"/>
</svg>
