<svg width="320" height="64" viewBox="0 0 320 64" fill="none" xmlns="http://www.w3.org/2000/svg">
<path d="M82.8227 17.3646V54.0977H75.9033V17.3646H64.594V11.485H94.074V17.3646H82.8227Z" fill="white"/>
<path d="M100.266 30.8994C100.945 29.0753 101.836 27.7267 102.941 26.8535C104.065 25.9803 105.451 25.5437 107.099 25.5437C107.99 25.5437 108.862 25.6504 109.715 25.8639C110.587 26.0773 111.44 26.3878 112.274 26.7953L110.006 32.151C109.463 31.7629 108.872 31.4815 108.232 31.3069C107.612 31.1128 106.915 31.0158 106.139 31.0158C104.046 31.0158 102.544 31.8599 101.633 33.5481C100.722 35.2169 100.266 38.0306 100.266 41.9891V54.0977H93.9577V26.446H100.266V30.8994Z" fill="white"/>
<path d="M141.812 54.0977H135.503V50.5175C134.379 52.1087 133.061 53.2924 131.549 54.0685C130.057 54.8447 128.341 55.2328 126.403 55.2328C122.507 55.2328 119.435 53.9036 117.187 51.2452C114.958 48.5673 113.844 44.9095 113.844 40.2718C113.844 35.867 114.987 32.3159 117.274 29.6187C119.561 26.902 122.546 25.5437 126.229 25.5437C128.477 25.5437 130.396 26.0191 131.985 26.9699C133.594 27.9014 134.766 29.25 135.503 31.0158V26.5042H141.812V54.0977ZM135.677 40.2136C135.677 37.3611 135.009 35.1393 133.671 33.5481C132.353 31.9569 130.502 31.1613 128.118 31.1613C125.734 31.1613 123.854 31.986 122.478 33.6354C121.122 35.2654 120.443 37.5358 120.443 40.4465C120.443 43.3766 121.102 45.6372 122.42 47.2284C123.738 48.8196 125.599 49.6152 128.002 49.6152C130.27 49.6152 132.111 48.7517 133.526 47.0247C134.96 45.2976 135.677 43.0273 135.677 40.2136Z" fill="white"/>
<path d="M160.215 55.7568L145.766 26.5042H152.656L158.674 40.3883C158.868 40.8152 159.1 41.4555 159.372 42.3093C159.643 43.1631 159.924 44.1819 160.215 45.3656C160.409 44.5312 160.632 43.7065 160.884 42.8915C161.155 42.0571 161.475 41.2227 161.843 40.3883L167.832 26.5042H174.693L160.215 55.7568Z" fill="white"/>
<path d="M205.22 41.2324H183.183C183.338 43.8132 184.103 45.8313 185.479 47.2866C186.855 48.7226 188.687 49.4405 190.974 49.4405C193.009 49.4405 194.705 49.0136 196.062 48.1598C197.419 47.306 198.601 45.9283 199.609 44.0266L204.929 46.9955C203.379 49.7704 201.46 51.837 199.173 53.1953C196.886 54.5537 194.201 55.2328 191.12 55.2328C186.7 55.2328 183.183 53.8842 180.566 51.187C177.949 48.4897 176.641 44.8901 176.641 40.3883C176.641 36.061 177.988 32.51 180.682 29.7351C183.396 26.9408 186.875 25.5437 191.12 25.5437C195.558 25.5437 199.018 26.8147 201.499 29.3567C203.979 31.8987 205.22 35.4595 205.22 40.039V41.2324ZM198.678 36.9827C198.427 35.0035 197.671 33.4996 196.411 32.4712C195.151 31.4233 193.426 30.8994 191.236 30.8994C189.162 30.8994 187.495 31.4039 186.235 32.4129C184.975 33.422 184.094 34.9452 183.59 36.9827H198.678Z" fill="white"/>
<path d="M212.11 54.0977V8.98181H218.419V54.0977H212.11Z" fill="white"/>
<path d="M227.751 54.0977V8.98181H234.06V54.0977H227.751Z" fill="white"/>
<path d="M242.55 14.5704C242.55 13.5031 242.937 12.5814 243.713 11.8052C244.507 11.029 245.447 10.6409 246.533 10.6409C247.657 10.6409 248.587 11.0193 249.324 11.7761C250.08 12.5135 250.457 13.4449 250.457 14.5704C250.457 15.6958 250.08 16.6467 249.324 17.4228C248.568 18.1796 247.637 18.558 246.533 18.558C245.447 18.558 244.507 18.1699 243.713 17.3937C242.937 16.5981 242.55 15.657 242.55 14.5704ZM243.393 54.0977V26.5042H249.702V54.0977H243.393Z" fill="white"/>
<path d="M284.676 54.0977H278.368V50.5175C277.243 52.1087 275.925 53.2924 274.414 54.0685C272.921 54.8447 271.206 55.2328 269.268 55.2328C265.372 55.2328 262.3 53.9036 260.052 51.2452C257.823 48.5673 256.708 44.9095 256.708 40.2718C256.708 35.867 257.852 32.3159 260.139 29.6187C262.426 26.902 265.411 25.5437 269.093 25.5437C271.342 25.5437 273.26 26.0191 274.85 26.9699C276.458 27.9014 277.631 29.25 278.368 31.0158V26.5042H284.676V54.0977ZM278.542 40.2136C278.542 37.3611 277.873 35.1393 276.536 33.5481C275.218 31.9569 273.367 31.1613 270.983 31.1613C268.599 31.1613 266.719 31.986 265.343 33.6354C263.986 35.2654 263.308 37.5358 263.308 40.4465C263.308 43.3766 263.967 45.6372 265.285 47.2284C266.603 48.8196 268.463 49.6152 270.867 49.6152C273.134 49.6152 274.976 48.7517 276.391 47.0247C277.825 45.2976 278.542 43.0273 278.542 40.2136Z" fill="white"/>
<path d="M293.398 54.0977V26.5042H299.329V31.0158C300.589 29.1141 302.072 27.7267 303.777 26.8535C305.483 25.9803 307.557 25.5437 309.999 25.5437C312.053 25.5437 313.798 25.8736 315.232 26.5333C316.686 27.1737 317.82 28.1342 318.634 29.4149C319.118 30.1717 319.467 31.0546 319.68 32.0637C319.893 33.0727 320 34.8385 320 37.3611V54.0977H313.633V39.9225C313.633 36.2939 313.187 33.8877 312.296 32.704C311.423 31.5009 309.863 30.8994 307.615 30.8994C306.142 30.8994 304.824 31.171 303.661 31.7144C302.517 32.2577 301.616 33.0242 300.957 34.0138C300.492 34.6736 300.163 35.5274 299.969 36.5752C299.794 37.6037 299.707 39.2531 299.707 41.5234V54.0977H293.398Z" fill="white"/>
<path d="M19.7512 46.0134L27.8422 53.9896L35.9333 46.0134L27.8422 38.0371L19.7512 46.0134ZM27.8422 7.30364V7.31563C25.5264 7.31563 23.2106 8.18722 21.4464 9.9264L21.4383 9.9184C19.6781 11.6576 18.794 13.9445 18.794 16.2314C18.794 18.5223 19.6741 20.8053 21.4302 22.5365H21.4424L27.8422 28.8415L34.238 22.5365H34.2502C36.0185 20.7933 36.9026 18.5104 36.9026 16.2314H36.8904C36.8904 13.9485 36.0063 11.6656 34.2421 9.9264C32.4657 8.17922 30.1499 7.30364 27.8422 7.30364ZM40.5973 50.6112L30.1742 60.8864L27.8422 63.1853L25.5102 60.8864L15.0871 50.6112L4.66403 60.8864L0 56.2885L23.1823 33.4393L16.7864 27.1343L16.7946 27.1263C13.7325 24.1117 12.2035 20.1656 12.2035 16.2314C12.2035 12.2933 13.7325 8.35114 16.7864 5.34056V5.33257C19.8404 2.32199 23.8433 0.814697 27.8422 0.814697V0.826692C31.8492 0.826692 35.8562 2.32998 38.9021 5.33257C41.956 8.34315 43.4809 12.2893 43.4809 16.2354H43.4688C43.4688 20.1776 41.9438 24.1197 38.8939 27.1303L38.9021 27.1383L32.5063 33.4393L55.6845 56.2885L51.0204 60.8864L40.5973 50.6112Z" fill="white"/>
</svg>
