<svg width="40" height="40" viewBox="0 0 40 40" fill="none" xmlns="http://www.w3.org/2000/svg">
<g id="pinterest 1">
<g id="_x31_4.Pinterest">
<g id="Group">
<g id="Icon_9_">
<path id="Vector" d="M36.0002 20.48C36.2402 11.32 28.8802 3.87997 19.7602 3.99997C11.0002 4.11997 3.92018 11.36 4.00018 20.12C4.04018 26.4 7.72018 31.8 13.0002 34.4C13.3202 34.56 13.6802 34.32 13.6402 33.96C13.6002 32.92 13.6402 31.84 13.8402 30.96C14.0402 30.08 14.8402 26.72 15.3602 24.52C15.6002 23.44 15.6402 22.32 15.4402 21.24C15.3602 20.88 15.3202 20.48 15.3202 20C15.3202 17.64 16.6802 15.88 18.4002 15.88C19.8402 15.88 20.5602 16.96 20.5602 18.28C20.5602 19.72 19.6402 21.92 19.1602 23.96C18.7602 25.64 20.0002 27.04 21.6802 27.04C24.7202 27.04 27.0402 23.84 27.0402 19.24C27.0402 15.16 24.1202 12.32 19.9202 12.32C15.0802 12.32 12.2402 15.96 12.2402 19.72C12.2402 21.2 12.8002 22.76 13.5202 23.6C13.6402 23.76 13.6802 23.92 13.6402 24.08C13.5202 24.6 13.2402 25.76 13.1602 26C13.0802 26.32 12.9202 26.36 12.6002 26.24C10.4802 25.2 9.12018 22.08 9.12018 19.6C9.12018 14.24 13.0002 9.31997 20.3602 9.31997C26.2402 9.31997 30.8402 13.52 30.8402 19.16C30.8402 25.04 27.1602 29.72 22.0002 29.72C20.6402 29.72 19.3602 29.16 18.6002 28.4C18.3602 28.16 17.9602 28.28 17.8802 28.6C17.6002 29.6 17.2002 31.28 17.0402 31.8C16.8002 32.76 16.2802 33.88 15.7202 34.88C15.5602 35.12 15.7202 35.48 16.0002 35.52C17.3202 35.84 18.6802 36.04 20.0802 36C28.5602 35.92 35.7602 28.88 36.0002 20.48Z" fill="white"/>
</g>
</g>
</g>
</g>
</svg>
